<svg data-name="icon / 24 / 2px / Date" xmlns="http://www.w3.org/2000/svg" width="20" height="20" viewBox="0 0 20 20">
    <path style="fill:transparent" d="M0 0h20v20H0z"/>
    <path data-name="사각형 1928" d="M2.4 1.184a1.194 1.194 0 0 0-1.2 1.184v10.264a1.194 1.194 0 0 0 1.2 1.184h11.2a1.194 1.194 0 0 0 1.2-1.184V2.368a1.194 1.194 0 0 0-1.2-1.184H2.4M2.4 0h11.2A2.384 2.384 0 0 1 16 2.368v10.264A2.384 2.384 0 0 1 13.6 15H2.4A2.384 2.384 0 0 1 0 12.632V2.368A2.384 2.384 0 0 1 2.4 0z" transform="translate(2 2.93)" style="fill:#222"/>
    <path data-name="선 37" transform="translate(2.926 6.842)" style="fill:none;stroke:#222;stroke-width:1.5px" d="M0 0h14.149"/>
    <path data-name="선 35" transform="translate(5.997 2.07)" style="stroke-linecap:round;fill:none;stroke:#222;stroke-width:1.5px" d="M0 0v2.867"/>
    <path data-name="선 36" transform="translate(14.003 2.07)" style="stroke-linecap:round;fill:none;stroke:#222;stroke-width:1.5px" d="M0 0v2.867"/>
</svg>
