<svg xmlns="http://www.w3.org/2000/svg" width="24" height="24" viewBox="0 0 24 24">
    <g data-name="Icon / 24 / Logout">
        <path style="fill:transparent;opacity:.451" d="M0 0h24v24H0z"/>
        <path d="M1730.021 40.01h-9.921V40h-1.067a2 2 0 0 1-2-1.8l-.009-16.267A2.009 2.009 0 0 1 1718.97 20h12.119a2.008 2.008 0 0 1 2.011 2v1h.011v1.02a1 1 0 0 1-1 1h-.021a1 1 0 0 1-1-1v-.367c-.047-1.18-.378-1.574-1.58-1.643h-8.9c-1.331.076-1.556.564-1.556 1.989l-.022-.883.005 13.388c.077 1.156.487 1.478 1.9 1.495l-1.9-.012V38h12.063v-1.37l-.009 1.357-1.9.012c1.47-.018 1.862-.363 1.91-1.68v-.334a1 1 0 0 1 2.01 0V38a2.008 2.008 0 0 1-2.011 2h-1.067v.01zm1.062-18 .007 1.06v-1.06h-.278zm-.78 11.71a1 1 0 0 1 0-1.414l1.3-1.3-6.558-.006a1 1 0 1 1 0-2l6.6.007-1.345-1.347a1 1 0 0 1 0-1.414 1.008 1.008 0 0 1 1.421 0l2.854 2.857a1.008 1.008 0 0 1 .2.152 1.051 1.051 0 0 1 0 1.458 1.01 1.01 0 0 1-.193.15l-2.857 2.859a1.008 1.008 0 0 1-1.421 0z" transform="translate(-1714.02 -18)" style="fill:#fff"/>
    </g>
</svg>
