<svg xmlns="http://www.w3.org/2000/svg" width="52" height="38" viewBox="0 0 52 38">
    <g data-name="icon_weather">
        <path style="fill:none" d="M0 0h52v38H0z"/>
        <path data-name="패스 23535" d="m30.392 21.717 2.559.037a4.978 4.978 0 0 0 .143-9.955l-1.054-.015a6.063 6.063 0 0 0-6.306-6.441 6.837 6.837 0 0 0-2.561.46A7.932 7.932 0 0 0 7.6 7.818a8.1 8.1 0 0 0 .033.842l-1.05-.015A6.489 6.489 0 1 0 6.4 21.622l2.559.037z" transform="translate(7 2.999)" style="fill:#f1f2f2"/>
        <path data-name="패스 23514" d="M10.135 31.951a.731.731 0 0 1-.735-.731v-5.484a.731.731 0 1 1 1.462 0v5.484a.731.731 0 0 1-.731.731" transform="translate(7 2.998)" style="fill:#01bff3"/>
        <path data-name="패스 23515" d="M7.786 30.537a.731.731 0 0 1-.366-1.364l4.749-2.742A.731.731 0 1 1 12.9 27.7l-4.749 2.739a.733.733 0 0 1-.365.1" transform="translate(7 2.998)" style="fill:#01bff3"/>
        <path data-name="패스 23516" d="M12.484 30.537a.735.735 0 0 1-.365-.1L7.37 27.7a.731.731 0 1 1 .73-1.269l4.749 2.742a.731.731 0 0 1-.366 1.364" transform="translate(7 2.998)" style="fill:#01bff3"/>
        <path data-name="패스 23517" d="M25.252 30.946a.731.731 0 0 1-.731-.731v-6.3a.731.731 0 1 1 1.462 0v6.3a.731.731 0 0 1-.731.731" transform="translate(7 2.998)" style="fill:#01bff3"/>
        <path data-name="패스 23518" d="M22.552 29.32a.731.731 0 0 1-.366-1.364l5.458-3.151a.731.731 0 1 1 .731 1.266l-5.458 3.151a.733.733 0 0 1-.365.1" transform="translate(7 2.998)" style="fill:#01bff3"/>
        <path data-name="패스 23519" d="M27.951 29.32a.733.733 0 0 1-.365-.1l-5.458-3.151a.731.731 0 0 1 .731-1.266l5.458 3.151a.731.731 0 0 1-.366 1.364" transform="translate(7 2.998)" style="fill:#01bff3"/>
        <path data-name="패스 23520" d="M18.584 20.067a.731.731 0 0 1-.731-.731v-8.214a.731.731 0 0 1 1.463 0v8.214a.731.731 0 0 1-.732.731" transform="translate(7 2.998)" style="fill:#01bff3"/>
        <path data-name="패스 23521" d="M15.066 17.949a.731.731 0 0 1-.366-1.364l7.114-4.107a.731.731 0 1 1 .73 1.266l-7.113 4.107a.733.733 0 0 1-.365.1" transform="translate(7 2.998)" style="fill:#01bff3"/>
        <path data-name="패스 23522" d="M22.1 17.949a.735.735 0 0 1-.365-.1l-7.113-4.107a.731.731 0 1 1 .73-1.266l7.114 4.107a.731.731 0 0 1-.366 1.364" transform="translate(7 2.998)" style="fill:#01bff3"/>
    </g>
</svg>
