<svg data-name="Icon / 26 / User" xmlns="http://www.w3.org/2000/svg" width="26" height="26" viewBox="0 0 26 26">
    <path style="fill:transparent" d="M0 0h26v26H0z"/>
    <g data-name="그룹 8933">
        <path data-name="패스 7746" d="M-201.2 20.69v-2.772a6.869 6.869 0 0 0-4.659-6.341" transform="translate(221.632 .892)" style="fill:none;stroke:#707070;stroke-linejoin:round;stroke-width:2px"/>
        <path data-name="패스 7749" d="M-210.707 11.577a6.869 6.869 0 0 0-4.659 6.341v2.772a1.573 1.573 0 0 0 1.634 1.505h11.6a1.574 1.574 0 0 0 1.632-1.505" transform="translate(220.933 .892)" style="stroke-linecap:round;fill:none;stroke:#707070;stroke-linejoin:round;stroke-width:2px"/>
    </g>
    <path data-name="패스 7747" d="M-208.4 1.733a5.325 5.325 0 0 0-5.309 5.338 5.338 5.338 0 0 0 2.7 4.646 5.248 5.248 0 0 0 2.606.691 5.255 5.255 0 0 0 2.607-.691 5.335 5.335 0 0 0 2.7-4.646 5.324 5.324 0 0 0-5.304-5.338z" transform="translate(221.398 .824)" style="stroke-linecap:round;fill:none;stroke:#707070;stroke-linejoin:round;stroke-width:2px"/>
</svg>
