<svg xmlns="http://www.w3.org/2000/svg" width="20" height="20" viewBox="0 0 20 20">
    <g data-name="Icon / 20 / Live">
        <path style="fill:none" d="M0 0h20v20H0z"/>
        <path data-name="패스 23475" d="M17.634 3.343V7.32a7.442 7.442 0 1 1-14.884 0V3.343" transform="translate(-.215 2.871)" style="stroke-miterlimit:10;stroke:#222;stroke-width:1.5px;fill:none"/>
        <g data-name="패스 23476" style="stroke-miterlimit:10;fill:none">
            <path d="M18.752 5.755h-16c-1.1 0-2-1.317-2-2.944V.75h20v2.064c-.002 1.625-.897 2.941-2 2.941z" style="stroke:none" transform="translate(-.75 1.617)"/>
            <path d="M18.73 4.255c.158-.077.52-.588.52-1.441V2.25h-17v.56c0 .857.363 1.369.52 1.445h15.96m.022 1.5H2.75c-1.105 0-2-1.318-2-2.944V.75h20v2.064c0 1.625-.895 2.94-1.998 2.94z" style="fill:#222;stroke:none" transform="translate(-.75 1.617)"/>
        </g>
        <g data-name="그룹 14475" transform="translate(-.024 2.169)">
            <circle data-name="타원 746" cx="2.977" cy="2.977" r="2.977" transform="translate(7.023 6.698)" style="stroke-miterlimit:10;stroke:#222;stroke-width:1.5px;fill:none"/>
            <path data-name="패스 23477" d="M11.783 9.859a1.116 1.116 0 1 1-1.116-1.116 1.116 1.116 0 0 1 1.116 1.116" transform="translate(-.666 -.185)" style="fill:#222"/>
        </g>
    </g>
</svg>
