<svg xmlns="http://www.w3.org/2000/svg" width="52" height="38" viewBox="0 0 52 38">
    <g data-name="icon_weather">
        <path style="fill:none" d="M0 0h52v38H0z"/>
        <path data-name="패스 23535" d="m30.392 21.717 2.559.037a4.978 4.978 0 0 0 .143-9.955l-1.054-.015a6.063 6.063 0 0 0-6.306-6.441 6.837 6.837 0 0 0-2.561.46A7.932 7.932 0 0 0 7.6 7.818a8.1 8.1 0 0 0 .033.842l-1.05-.015A6.489 6.489 0 1 0 6.4 21.622l2.559.037z" transform="translate(7 2.999)" style="fill:#f1f2f2"/>
        <path data-name="패스 23517" d="M25.252 30.946a.731.731 0 0 1-.731-.731v-6.3a.731.731 0 1 1 1.462 0v6.3a.731.731 0 0 1-.731.731" transform="translate(7 2.998)" style="fill:#01bff3"/>
        <path data-name="패스 23518" d="M22.552 29.32a.731.731 0 0 1-.366-1.364l5.458-3.151a.731.731 0 1 1 .731 1.266l-5.458 3.151a.733.733 0 0 1-.365.1" transform="translate(7 2.998)" style="fill:#01bff3"/>
        <path data-name="패스 23519" d="M27.951 29.32a.733.733 0 0 1-.365-.1l-5.458-3.151a.731.731 0 0 1 .731-1.266l5.458 3.151a.731.731 0 0 1-.366 1.364" transform="translate(7 2.998)" style="fill:#01bff3"/>
        <path data-name="패스 23520" d="M18.584 20.067a.731.731 0 0 1-.731-.731v-8.214a.731.731 0 0 1 1.463 0v8.214a.731.731 0 0 1-.732.731" transform="translate(7 2.998)" style="fill:#01bff3"/>
        <path data-name="패스 23521" d="M15.066 17.949a.731.731 0 0 1-.366-1.364l7.114-4.107a.731.731 0 1 1 .73 1.266l-7.113 4.107a.733.733 0 0 1-.365.1" transform="translate(7 2.998)" style="fill:#01bff3"/>
        <path data-name="패스 23522" d="M22.1 17.949a.735.735 0 0 1-.365-.1l-7.113-4.107a.731.731 0 1 1 .73-1.266l7.114 4.107a.731.731 0 0 1-.366 1.364" transform="translate(7 2.998)" style="fill:#01bff3"/>
        <path data-name="패스 23536" d="M9.7 28.851a.706.706 0 0 1-.321-.077.732.732 0 0 1-.337-.976l.479-.987a.75.75 0 0 1 .98-.337.734.734 0 0 1 .41.662.71.71 0 0 1-.074.314l-.478.988a.729.729 0 0 1-.659.413m1.6-3.287a.7.7 0 0 1-.318-.077.73.73 0 0 1-.336-.976l.479-.987a.743.743 0 0 1 .979-.336.733.733 0 0 1 .337.976l-.483.987a.718.718 0 0 1-.658.413" transform="translate(7 2.999)" style="fill:#01bff3"/>
        <path data-name="패스 23537" d="M12.846 32.222a.732.732 0 0 1-.658-1.053l.482-.987a.746.746 0 0 1 .976-.337.735.735 0 0 1 .34.98l-.482.984a.727.727 0 0 1-.658.413m1.6-3.29a.776.776 0 0 1-.322-.073.732.732 0 0 1-.336-.977l.479-.987a.755.755 0 0 1 .98-.336.732.732 0 0 1 .336.976l-.479.987a.73.73 0 0 1-.658.41m1.6-3.287a.73.73 0 0 1-.656-1.045l.479-.987a.752.752 0 0 1 .98-.337.734.734 0 0 1 .336.977l-.483.986a.729.729 0 0 1-.654.41" transform="translate(7 2.999)" style="fill:#01bff3"/>
    </g>
</svg>
