<svg xmlns="http://www.w3.org/2000/svg" width="52" height="38" viewBox="0 0 52 38">
    <g data-name="icon_weather">
        <path style="fill:none" d="M0 0h52v38H0z"/>
        <path data-name="패스 23523" d="M30.813 4.134a.66.66 0 0 1-.66-.66V.659a.66.66 0 0 1 1.32 0v2.815a.66.66 0 0 1-.66.66" transform="translate(4 1.999)" style="fill:#fec02a"/>
        <path data-name="패스 23524" d="M23.946 6.979a.654.654 0 0 1-.466-.193L21.489 4.8a.66.66 0 1 1 .933-.933l1.99 1.991a.66.66 0 0 1-.466 1.126" transform="translate(4 1.999)" style="fill:#fec02a"/>
        <path data-name="패스 23525" d="M39.671 22.7a.654.654 0 0 1-.466-.193l-1.991-1.991a.66.66 0 1 1 .933-.933l1.99 1.991a.66.66 0 0 1-.466 1.126" transform="translate(4 1.999)" style="fill:#fec02a"/>
        <path data-name="패스 23526" d="M43.34 13.847h-2.815a.66.66 0 1 1 0-1.319h2.815a.66.66 0 1 1 0 1.319" transform="translate(4 1.999)" style="fill:#fec02a"/>
        <path data-name="패스 23527" d="M37.681 6.979a.652.652 0 0 1-.466-.193.659.659 0 0 1 0-.933L39.2 3.862a.66.66 0 0 1 .934.933l-1.988 1.991a.652.652 0 0 1-.465.193" transform="translate(4 1.999)" style="fill:#fec02a"/>
        <path data-name="패스 23528" d="M37.508 13.187a6.695 6.695 0 1 1-6.695-6.7 6.7 6.7 0 0 1 6.695 6.7" transform="translate(4 1.999)" style="fill:#fec02a"/>
        <path data-name="패스 23529" d="M35 13.187A4.191 4.191 0 1 1 30.814 9 4.19 4.19 0 0 1 35 13.187" transform="translate(4 1.999)" style="fill:#ffcc50"/>
        <path data-name="패스 23530" d="m27.446 27.325 2.309.022a4.491 4.491 0 0 0 .085-8.982l-.951-.009a5.469 5.469 0 0 0-5.717-5.782 6.177 6.177 0 0 0-2.309.426 7.156 7.156 0 0 0-14.04 1.886 7.356 7.356 0 0 0 .034.76l-.948-.009A5.854 5.854 0 0 0 5.8 27.345l2.309.022z" transform="translate(4 1.999)" style="fill:#f1f2f2"/>
        <path data-name="패스 23531" d="M11.493 31.173a.629.629 0 0 1-.29-.069.661.661 0 0 1-.3-.881l.44-.89a.667.667 0 0 1 .88-.3.667.667 0 0 1 .3.884l-.436.888a.66.66 0 0 1-.594.369" transform="translate(4 1.999)" style="fill:#01bff3"/>
        <path data-name="패스 23532" d="M14.027 34.135a.624.624 0 0 1-.29-.07.661.661 0 0 1-.3-.884l.436-.887a.672.672 0 0 1 .884-.3.662.662 0 0 1 .366.6.65.65 0 0 1-.066.284l-.436.89a.657.657 0 0 1-.593.37m1.454-2.962a.659.659 0 0 1-.59-.95l.435-.887a.667.667 0 0 1 .881-.3.645.645 0 0 1 .333.38.654.654 0 0 1-.03.5l-.435.888a.659.659 0 0 1-.594.369" transform="translate(4 1.999)" style="fill:#01bff3"/>
        <path data-name="패스 23533" d="M22 34.135a.63.63 0 0 1-.29-.07.641.641 0 0 1-.333-.379.657.657 0 0 1 .033-.505l.436-.887a.668.668 0 0 1 .88-.3.654.654 0 0 1 .37.6.664.664 0 0 1-.066.284l-.436.89a.658.658 0 0 1-.594.37m1.455-2.962a.629.629 0 0 1-.29-.069.662.662 0 0 1-.3-.881l.439-.89a.669.669 0 0 1 .881-.3.659.659 0 0 1 .3.884l-.435.888a.649.649 0 0 1-.59.369" transform="translate(4 1.999)" style="fill:#01bff3"/>
        <path data-name="패스 23534" d="M19.469 31.173a.629.629 0 0 1-.29-.069.66.66 0 0 1-.3-.881l.436-.89a.676.676 0 0 1 .883-.3.665.665 0 0 1 .3.884l-.439.888a.65.65 0 0 1-.59.369" transform="translate(4 1.999)" style="fill:#01bff3"/>
    </g>
</svg>
