<svg data-name="icon / 24 / 2px / Date" xmlns="http://www.w3.org/2000/svg" width="24" height="24" viewBox="0 0 24 24">
    <path style="fill:transparent" d="M0 0h24v24H0z"/>
    <path data-name="사각형 1928" d="M3 1.5A1.5 1.5 0 0 0 1.5 3v13A1.5 1.5 0 0 0 3 17.5h14a1.5 1.5 0 0 0 1.5-1.5V3A1.5 1.5 0 0 0 17 1.5H3M3 0h14a3 3 0 0 1 3 3v13a3 3 0 0 1-3 3H3a3 3 0 0 1-3-3V3a3 3 0 0 1 3-3z" transform="translate(2 2.93)" style="fill:#222"/>
    <path data-name="선 37" transform="translate(2.926 8.21)" style="fill:none;stroke:#222;stroke-width:1.5px" d="M0 0h18.149"/>
    <path data-name="선 35" transform="translate(7.196 2.07)" style="stroke-linecap:round;fill:none;stroke:#222;stroke-width:1.5px" d="M0 0v2.867"/>
    <path data-name="선 36" transform="translate(16.804 2.07)" style="stroke-linecap:round;fill:none;stroke:#222;stroke-width:1.5px" d="M0 0v2.867"/>
</svg>
