<svg xmlns="http://www.w3.org/2000/svg" width="52" height="38" viewBox="0 0 52 38">
    <g data-name="icon_weather">
        <path style="fill:none" d="M0 0h52v38H0z"/>
        <path data-name="패스 23506" d="m32.344 12.577-1.031-.009a5.928 5.928 0 0 0-6.2-6.264 6.666 6.666 0 0 0-2.5.464A7.758 7.758 0 0 0 7.429 9.645L6.4 9.636a6.345 6.345 0 0 0-.112 12.69l25.968-.013a4.868 4.868 0 0 0 .086-9.736" transform="translate(1.999 8)" style="fill:#f1f2f2"/>
        <path data-name="패스 23507" d="m43.183 6.8-.783-.012a6.259 6.259 0 0 0 .04-.646 5.926 5.926 0 0 0-11.631-1.821 5.011 5.011 0 0 0-1.91-.4 5.209 5.209 0 0 0-2.1.4 8.147 8.147 0 0 1 4.332 2.229 7.985 7.985 0 0 1 2.11 3.946 7.025 7.025 0 0 1 6.017 6.157l3.832.106a4.983 4.983 0 0 0 .093-9.959" transform="translate(1.999 8)" style="fill:#f1f2f2"/>
    </g>
</svg>
