<svg data-name="Icon / 20 / statistics" xmlns="http://www.w3.org/2000/svg" width="20" height="20" viewBox="0 0 20 20">
    <path style="fill:none" d="M0 0h20v20H0z"/>
    <path data-name="패스 23336" d="M17.862 1.927a.252.252 0 0 1 .252.252V14.4a.252.252 0 0 1-.252.252h-1.681a.252.252 0 0 1-.252-.252V2.179a.252.252 0 0 1 .252-.252zm0-1.5h-1.681a1.752 1.752 0 0 0-1.752 1.752V14.4a1.753 1.753 0 0 0 1.752 1.752h1.681a1.752 1.752 0 0 0 1.752-1.752V2.179A1.751 1.751 0 0 0 17.862.427" style="fill:#1b26b3"/>
    <path data-name="패스 23337" d="M10.85 4.59a.252.252 0 0 1 .252.252V14.4a.253.253 0 0 1-.252.253H9.169a.253.253 0 0 1-.252-.253V4.842a.252.252 0 0 1 .252-.252zm0-1.5H9.169a1.752 1.752 0 0 0-1.752 1.752V14.4a1.753 1.753 0 0 0 1.752 1.753h1.681A1.752 1.752 0 0 0 12.6 14.4V4.842a1.751 1.751 0 0 0-1.75-1.752" style="fill:#1b26b3"/>
    <path data-name="패스 23338" d="M3.838 9.013a.251.251 0 0 1 .251.252V14.4a.251.251 0 0 1-.251.252H2.157A.252.252 0 0 1 1.9 14.4V9.265a.252.252 0 0 1 .252-.252zm0-1.5H2.157A1.752 1.752 0 0 0 .405 9.265V14.4a1.752 1.752 0 0 0 1.752 1.752h1.681A1.751 1.751 0 0 0 5.589 14.4V9.265a1.751 1.751 0 0 0-1.751-1.752" style="fill:#1b26b3"/>
    <path data-name="패스 23339" d="M18.9 19.574H1.109a.75.75 0 0 1 0-1.5H18.9a.75.75 0 0 1 0 1.5" style="fill:#1b26b3"/>
</svg>
