<svg xmlns="http://www.w3.org/2000/svg" width="20" height="20" viewBox="0 0 20 20">
    <g data-name="Icon / 20 / setting">
        <path style="fill:none" d="M0 0h20v20H0z"/>
        <g data-name="패스 23473" style="stroke-linecap:round;stroke-linejoin:round;fill:none">
            <path d="M10.115 2.343 10.09.75H7.409l-.025 1.593-2.214.929-1.129-1.107-1.9 1.922 1.097 1.142-.918 2.246L.75 7.5v2.719l1.571.025.918 2.246-1.094 1.144 1.9 1.922 1.125-1.108 2.215.929.025 1.594h2.68l.025-1.594 2.215-.929 1.128 1.108 1.9-1.922-1.093-1.145.917-2.246 1.572-.025V7.5l-1.572-.025-.917-2.246 1.093-1.143-1.9-1.922-1.128 1.108z" style="stroke:none" transform="translate(1.25 1.25)"/>
            <path d="m7.409.75-.025 1.593-2.214.929L4.04 2.165 2.145 4.087l1.093 1.142-.918 2.246L.75 7.5v2.718l1.57.025.918 2.246-1.093 1.145 1.896 1.922 1.129-1.108 2.214.929.025 1.593h2.681l.025-1.593 2.215-.93 1.128 1.109 1.896-1.922-1.093-1.145.917-2.246 1.572-.025V7.5l-1.572-.025-.917-2.246 1.093-1.142-1.896-1.922-1.128 1.107-2.215-.93L10.09.75H7.41m0-1.5h2.681a1.5 1.5 0 0 1 1.5 1.477l.01.612.39.164.417-.409a1.5 1.5 0 0 1 2.119.017l1.896 1.922a1.5 1.5 0 0 1 .016 2.09l-.42.44.174.428.581.01A1.5 1.5 0 0 1 18.25 7.5v2.718a1.5 1.5 0 0 1-1.477 1.5l-.58.01-.176.428.422.442a1.5 1.5 0 0 1-.017 2.09l-1.896 1.921a1.5 1.5 0 0 1-2.12.017l-.416-.41-.39.164-.01.614a1.5 1.5 0 0 1-1.5 1.476H7.41a1.5 1.5 0 0 1-1.5-1.476l-.01-.614-.39-.163-.416.409a1.5 1.5 0 0 1-2.12-.017l-1.896-1.922a1.5 1.5 0 0 1-.017-2.09l.422-.44-.176-.43-.58-.009a1.5 1.5 0 0 1-1.476-1.5V7.5A1.5 1.5 0 0 1 .726 6l.58-.01.175-.427-.42-.44a1.5 1.5 0 0 1 .016-2.09l1.897-1.922a1.5 1.5 0 0 1 2.118-.017l.417.409.39-.164.01-.612A1.5 1.5 0 0 1 7.41-.75z" style="fill:#222;stroke:none" transform="translate(1.25 1.25)"/>
        </g>
        <path data-name="패스 23474" d="M12.71 9.326a3.5 3.5 0 1 1-3.5-3.549 3.524 3.524 0 0 1 3.5 3.549z" transform="translate(.79 .784)" style="stroke:#222;stroke-width:1.5px;stroke-linecap:round;stroke-linejoin:round;fill:none"/>
    </g>
</svg>
