<svg xmlns="http://www.w3.org/2000/svg" width="20" height="20" viewBox="0 0 20 20">
    <g data-name="Icon / 20 / service">
        <path style="fill:none" d="M0 0h20v20H0z"/>
        <path data-name="패스 23486" d="M3.79 14.451a.205.205 0 0 1 .16.2c-.007.523-.015 1.043 0 1.568a1.587 1.587 0 0 0 2.77 1.016q1.264-1.268 2.521-2.535a.4.4 0 0 1 .283-.118q1.907.007 3.813.006c.435 0 .872.014 1.3-.019a3.69 3.69 0 0 0 1.928-.715 3.768 3.768 0 0 0 1.685-3.039c.03-1.552.025-4.861.022-7.438A2.627 2.627 0 0 0 15.632.75L3.368.821A2.626 2.626 0 0 0 .755 3.446v7.084a3.82 3.82 0 0 0 .286 1.515 3.971 3.971 0 0 0 2.749 2.406z" transform="translate(.486 .742)" style="stroke:#1b26b3;stroke-miterlimit:10;stroke-width:1.5px;fill:none"/>
        <path data-name="패스 23487" d="M14.952 7.039h-9.4a.75.75 0 0 1 0-1.5h9.4a.75.75 0 0 1 0 1.5" transform="translate(-.25 .461)" style="fill:#1b26b3"/>
        <path data-name="패스 23488" d="M14.952 10.476h-9.4a.75.75 0 0 1 0-1.5h9.4a.75.75 0 0 1 0 1.5" transform="translate(-.25 .027)" style="fill:#1b26b3"/>
    </g>
</svg>
