<svg xmlns="http://www.w3.org/2000/svg" width="58" height="38" viewBox="0 0 58 38">
    <path data-name="사각형 5553" style="fill:none" d="M0 0h58v38H0z"/>
    <path data-name="패스 23492" d="M774.65 284.665a8.431 8.431 0 1 0-8.431-8.431 8.44 8.44 0 0 0 8.431 8.431m0-13.641a5.21 5.21 0 1 1-5.209 5.209 5.215 5.215 0 0 1 5.209-5.209" transform="translate(-735.878 -257.548)" style="fill:#01bff3"/>
    <path data-name="패스 23493" d="M55.187 11.412a18.7 18.7 0 0 0-32.7-3.194 13.677 13.677 0 1 0-1.226 21.862 20.111 20.111 0 0 1-1.627-2.86 10.406 10.406 0 1 1-.814-17.59 10.959 10.959 0 0 1 2.039 1.54 12.093 12.093 0 0 1 1.873 2.275v.009c.162.256.317.524.461.8a15.454 15.454 0 1 1-.643 4.428 8.888 8.888 0 1 0-8.888 8.93 8.814 8.814 0 0 0 5.373-1.812 20.033 20.033 0 0 1-.981-3.584 5.662 5.662 0 1 1 1.231-3.528 18.686 18.686 0 1 0 35.9-7.274" style="fill:#01bff3" transform="translate(1)"/>
    <path data-name="패스 23494" d="M632.119 152.935a13.871 13.871 0 0 0 1 1.115 13.682 13.682 0 1 0-4.007-9.674 13.812 13.812 0 0 0 1.621 6.523 13.607 13.607 0 0 0 1.649-6.523 10.4 10.4 0 1 1 1.374 5.17 15.693 15.693 0 0 1-1.637 3.39" transform="translate(-604.02 -125.69)" style="fill:#01bff3"/>
</svg>
